<?xml version="1.0" encoding="UTF-8" standalone="no"?>
<!-- Created with Inkscape (http://www.inkscape.org/) -->

<svg
   width="124.05981mm"
   height="121.03136mm"
   viewBox="0 0 124.05981 121.03136"
   version="1.1"
   id="svg8888"
   xml:space="preserve"
   xmlns:inkscape="http://www.inkscape.org/namespaces/inkscape"
   xmlns:sodipodi="http://sodipodi.sourceforge.net/DTD/sodipodi-0.dtd"
   xmlns="http://www.w3.org/2000/svg"
   xmlns:svg="http://www.w3.org/2000/svg"><sodipodi:namedview
     id="namedview8890"
     pagecolor="#ffffff"
     bordercolor="#666666"
     borderopacity="1.0"
     inkscape:showpageshadow="2"
     inkscape:pageopacity="0.0"
     inkscape:pagecheckerboard="0"
     inkscape:deskcolor="#d1d1d1"
     inkscape:document-units="mm"
     showgrid="false"
     inkscape:zoom="0.71446409"
     inkscape:cx="229.54268"
     inkscape:cy="561.95967"
     inkscape:window-width="1920"
     inkscape:window-height="968"
     inkscape:window-x="0"
     inkscape:window-y="27"
     inkscape:window-maximized="1"
     inkscape:current-layer="layer1" /><defs
     id="defs8885" /><g
     inkscape:label="Layer 1"
     inkscape:groupmode="layer"
     id="layer1"
     transform="translate(-15.665865,-136.69801)"><rect
       style="fill:#4d4d4d;stroke:#ffffff;stroke-width:0.365001"
       id="rect9138"
       width="123.69482"
       height="120.66635"
       x="15.848366"
       y="136.88051" /><path
       style="fill:#76aff4;stroke-width:0.119551"
       d="m 95.378417,213.57594 c -1.26681,-0.0942 -2.96395,-0.31703 -3.45619,-0.45389 -1.62745,-0.45249 -1.99343,-0.58276 -2.19932,-0.78286 -0.20681,-0.20098 -0.22608,-0.43944 -0.22608,-2.7981 0,-1.92487 0.0384,-2.60657 0.15159,-2.68956 0.15235,-0.11172 1.41466,-0.20344 2.87957,-0.20923 l 0.78766,-0.003 0.12186,1.24923 c 0.0731,0.74923 0.19113,1.33019 0.29494,1.45151 0.44418,0.51912 1.79697,0.88303 3.30752,0.88972 1.31646,0.006 2.36769,-0.28052 3.431793,-0.93485 0.64869,-0.39888 0.72775,-0.49823 1.27882,-1.60713 0.42557,-0.85634 0.48854,-1.10323 0.60922,-2.3885 0.1336,-1.42277 0.10551,-3.24391 -0.0524,-3.39737 -0.0453,-0.044 -0.3131,0.13626 -0.59517,0.40058 -1.59603,1.49557 -3.370363,2.15648 -5.789423,2.15648 -1.1786,0 -2.53904,-0.23557 -3.33391,-0.57728 -0.7179,-0.30862 -1.76619,-1.37011 -2.16843,-2.19573 -0.18604,-0.38185 -0.44869,-1.12069 -0.58368,-1.64186 -0.25615,-0.98897 -0.26998,-1.34268 -0.32101,-8.21211 -0.0227,-3.05882 -0.003,-3.01034 -1.27332,-3.16342 -0.45458,-0.0548 -0.85308,-0.12543 -0.88555,-0.15698 -0.0976,-0.0949 -0.0518,-2.94807 0.0489,-3.04596 0.0513,-0.0499 1.61451,-0.0971 3.47376,-0.10494 2.69851,-0.0114 3.40114,0.0175 3.48302,0.14301 0.0564,0.0865 0.10382,2.86205 0.10535,6.16791 0.002,3.56102 0.0539,6.31665 0.12813,6.76148 0.16714,1.00105 0.49946,1.59693 1.10936,1.98918 0.47452,0.30519 0.58305,0.32411 1.84697,0.32202 1.53376,-0.003 2.06449,-0.17808 2.919343,-0.96567 1.17981,-1.08698 1.2127,-1.25959 1.2127,-6.36429 0,-3.74187 -0.0237,-4.29101 -0.19261,-4.45524 -0.10597,-0.10307 -0.56841,-0.23905 -1.02816,-0.30232 -0.45955,-0.0633 -0.879423,-0.15763 -0.933033,-0.20974 -0.0536,-0.0521 -0.0821,-0.75333 -0.0633,-1.55826 l 0.0342,-1.46352 h 3.516823 3.51683 l 0.0376,10.07667 c 0.0266,7.13081 -0.003,10.31786 -0.10041,10.90167 -0.4405,2.63394 -1.26836,4.2541 -2.75005,5.38195 -0.84842,0.64581 -1.15293,0.80078 -2.36898,1.2056 -1.613833,0.53724 -3.772683,0.74858 -5.974953,0.58491 z m -54.573284,-0.42395 c -0.07559,-0.20109 -3.64e-4,-2.6607 0.08387,-2.74257 0.03684,-0.0358 0.360877,-0.0943 0.72009,-0.13006 0.86023,-0.0856 1.267337,-0.2444 1.49609,-0.58369 0.165892,-0.24606 0.187816,-1.46008 0.187816,-10.40006 0,-9.7105 -0.0091,-10.12952 -0.225105,-10.31946 -0.14134,-0.12431 -0.644437,-0.25257 -1.351984,-0.34468 l -1.126879,-0.14669 -0.02796,-1.35304 c -0.01538,-0.74417 0.0224,-1.44669 0.08396,-1.56116 0.103444,-0.19238 0.361667,-0.20576 3.411215,-0.17679 l 3.299301,0.0314 0.08401,0.9852 c 0.0462,0.54187 0.103156,1.00382 0.126558,1.02656 0.0234,0.0228 0.3474,-0.23497 0.719992,-0.57271 1.457869,-1.32147 2.980255,-1.9438 5.011668,-2.04867 1.721508,-0.0889 2.736617,0.0714 3.878595,0.61247 1.615428,0.76535 2.949809,2.52697 3.524121,4.65246 0.495783,1.83485 0.677864,4.90802 0.41262,6.96421 -0.132018,1.02342 -0.673371,3.25802 -0.839674,3.46603 -0.05183,0.0648 -0.133407,0.24189 -0.181293,0.39349 -0.400122,1.26673 -2.293597,3.28423 -3.704363,3.94701 -2.407335,1.13097 -4.841085,1.2 -7.504885,0.21287 -0.360531,-0.1336 -0.701603,-0.21522 -0.757936,-0.18139 -0.05633,0.0338 -0.102425,1.17344 -0.102425,2.53245 v 2.47094 l 0.290896,0.10748 c 0.159993,0.0591 0.883065,0.15062 1.606826,0.20333 l 1.31593,0.0958 v 1.4732 1.4732 l -5.187594,0.0307 c -4.086322,0.0242 -5.19945,-8.3e-4 -5.24345,-0.11786 z m 12.651946,-11.51047 c 1.029117,-0.51024 2.002504,-1.99347 2.405027,-3.66473 0.161822,-0.67189 0.213645,-1.4083 0.216037,-3.06997 0.0032,-2.23676 -0.0217,-2.40738 -0.575749,-3.94124 -0.34508,-0.95534 -1.217951,-1.82327 -2.17886,-2.16654 -0.86529,-0.3091 -1.137522,-0.31138 -2.312498,-0.0193 -1.026798,0.25522 -1.803184,0.70969 -2.305287,1.34945 -0.667886,0.85099 -0.683224,0.98928 -0.683224,6.15973 v 4.76453 l 0.800897,0.36424 c 0.945157,0.42984 1.804451,0.56726 3.16287,0.50581 0.681313,-0.0308 1.142618,-0.11925 1.470787,-0.28195 z m 17.667361,3.92378 c -2.772986,-0.48254 -4.441533,-1.74471 -5.529672,-4.18291 -0.590368,-1.32284 -0.708213,-1.75861 -0.857234,-3.16989 -0.137247,-1.29978 -0.05549,-4.45292 0.142108,-5.4803 0.204493,-1.06326 0.919742,-2.84175 1.522134,-3.78484 0.524998,-0.82193 1.608998,-1.98322 2.308265,-2.47284 0.586844,-0.41091 1.406885,-0.80685 2.111224,-1.01937 0.366841,-0.11068 0.939842,-0.2925 1.273334,-0.40404 0.498712,-0.1668 1.069184,-0.20335 3.213652,-0.20592 2.548016,-0.003 2.640875,0.005 4.083754,0.37322 0.812048,0.20699 1.848906,0.49728 2.304128,0.6451 l 0.827674,0.26877 -0.0299,7.24813 c -0.0212,5.13496 0.0104,7.39715 0.10837,7.75926 0.15783,0.58339 0.31878,0.67743 1.34688,0.78695 0.50396,0.0537 0.73129,0.13527 0.81857,0.29376 0.15952,0.28968 0.15582,2.42615 -0.005,2.71765 -0.11892,0.21596 -0.28367,0.22796 -3.128759,0.22796 -2.17415,0 -3.0434,-0.039 -3.148751,-0.14143 -0.08661,-0.0842 -0.145524,-0.48975 -0.145524,-1.00177 0,-0.47319 -0.04346,-0.86035 -0.09658,-0.86035 -0.05312,0 -0.431952,0.30918 -0.841855,0.68707 -0.929096,0.85653 -1.860772,1.34437 -3.171088,1.66042 -1.166919,0.28147 -1.747267,0.29181 -3.10604,0.0554 z m 3.730703,-3.39857 c 1.24773,-0.28978 2.072882,-0.91955 2.710303,-2.06854 0.212816,-0.38361 0.231361,-0.78019 0.264882,-5.66423 0.02087,-3.041 -0.01135,-5.37276 -0.07655,-5.53923 -0.175816,-0.4489 -1.017884,-0.64105 -2.809335,-0.64105 -1.390896,0 -1.573067,0.026 -2.209578,0.31598 -1.36029,0.61962 -2.239077,1.8585 -2.785461,3.92683 -0.247164,0.93564 -0.280136,1.33862 -0.279651,3.41782 4.86e-4,2.14634 0.0261,2.43616 0.286282,3.24103 0.371855,1.15035 0.556327,1.4958 1.090816,2.04273 0.527673,0.53996 0.962638,0.77851 1.775369,0.97371 0.797455,0.19152 1.190708,0.19055 2.032925,-0.005 z"
       id="path9047" /><path
       style="fill:#f6a518;stroke-width:0.119551"
       d="m 80.462221,173.2268 c -2.081078,-0.45475 -2.458567,-0.64474 -3.780929,-1.90292 -0.75515,-0.7185 -1.434094,-1.79341 -1.777075,-2.81348 -0.511394,-1.52094 -0.617351,-2.3681 -0.611433,-4.88859 0.0053,-2.27796 0.03142,-2.57347 0.327578,-3.71245 0.475271,-1.82785 1.439235,-3.64454 2.48133,-4.67634 0.87868,-0.87 2.114817,-1.65563 3.178624,-2.0202 1.932405,-0.66224 1.984734,-0.66969 4.668891,-0.66492 2.37066,0.004 2.63467,0.0267 3.82,0.3253 2.19767,0.55363 2.96451,0.80523 3.17703,1.0424 0.18932,0.21128 0.20472,0.82068 0.19108,7.56084 -0.0152,7.49092 -0.003,7.72511 0.43183,7.99966 0.069,0.0436 0.44453,0.11533 0.83441,0.1593 1.04074,0.11739 1.07901,0.18395 1.03876,1.80642 l -0.0341,1.37275 -3.12492,0.0315 -3.12492,0.0314 -0.11905,-0.3043 c -0.0655,-0.16737 -0.11905,-0.61906 -0.11905,-1.00377 0,-0.39597 -0.0536,-0.69946 -0.12345,-0.69946 -0.0679,0 -0.46354,0.32136 -0.8792,0.71414 -0.8806,0.83211 -2.01883,1.40628 -3.34762,1.68867 -1.11283,0.2365 -1.866149,0.22536 -3.107826,-0.046 z m 3.806016,-3.32102 c 1.47033,-0.25509 2.50505,-1.11216 2.92231,-2.42058 0.19157,-0.6007 0.21957,-1.22696 0.23677,-5.2953 0.0107,-2.53771 -0.0168,-4.87967 -0.0611,-5.20436 -0.0778,-0.57018 -0.0998,-0.59767 -0.64245,-0.80482 -0.43951,-0.16776 -0.90521,-0.21502 -2.13839,-0.217 -1.46776,-0.002 -1.62431,0.0196 -2.26942,0.31803 -1.360328,0.62932 -1.957072,1.41908 -2.725673,3.6073 -0.302922,0.86242 -0.318141,1.02409 -0.329193,3.49705 -0.0124,2.77346 0.0485,3.19827 0.633515,4.4196 0.551656,1.15167 1.262211,1.7867 2.314995,2.06893 0.724886,0.19433 1.086496,0.1998 2.058616,0.0311 z m -29.187804,2.82629 c -0.09598,-0.0933 -0.145524,-0.59402 -0.145524,-1.47095 0,-1.50153 -0.104999,-1.36351 1.144186,-1.50393 0.780451,-0.0877 1.119088,-0.31628 1.274519,-0.86021 0.168885,-0.59102 0.172169,-11.24426 0.0036,-11.8339 -0.147257,-0.51524 -0.26094,-0.5708 -1.512828,-0.73942 l -0.97016,-0.13066 -0.0918,-0.80596 c -0.05049,-0.44329 -0.05042,-1.13186 1.21e-4,-1.53018 l 0.09196,-0.72421 h 3.334769 3.334769 l 0.06064,1.15013 c 0.03335,0.63258 0.103911,1.15158 0.156805,1.15334 0.05289,0.002 0.364724,-0.30916 0.692957,-0.69092 1.427168,-1.65991 3.84212,-2.58596 5.889428,-2.2584 1.54119,0.24659 2.814139,0.73601 2.913334,1.12011 0.09132,0.35361 0.0076,5.43972 -0.09113,5.53537 -0.113966,0.11042 -3.497966,0.33486 -3.597134,0.23858 -0.04547,-0.0442 -0.09392,-0.53907 -0.107657,-1.09983 -0.02921,-1.19191 -0.163333,-1.49866 -0.735536,-1.68219 -0.481813,-0.15453 -1.69638,-0.0565 -2.266017,0.18286 -0.674739,0.28355 -1.599218,1.34375 -1.876182,2.15163 -0.237774,0.69356 -0.251253,0.99154 -0.251253,5.55425 0,4.21506 0.02368,4.84048 0.188336,4.97328 0.117244,0.0946 0.678002,0.17136 1.485556,0.20344 1.843288,0.0732 1.842935,0.0729 1.842935,1.65622 0,0.83073 -0.05034,1.31905 -0.145524,1.41155 -0.209268,0.20338 -10.413974,0.20338 -10.623243,0 z"
       id="path9045" /><path
       style="fill:#36bb38;stroke-width:0.119551"
       d="m 60.937769,245.82184 c -1.792807,-0.1153 -2.507732,-0.22298 -3.873161,-0.58339 -1.450839,-0.38295 -1.59608,-0.48034 -1.687973,-1.1319 -0.09977,-0.70744 -0.09919,-3.57144 8.48e-4,-4.38127 0.08862,-0.71703 -0.07082,-0.64993 2.020284,-0.85036 1.772203,-0.16988 1.781289,-0.16486 1.782214,0.98458 8.49e-4,1.06579 0.16828,1.65058 0.557804,1.94835 1.092999,0.83555 4.544886,0.87131 5.868824,0.0608 0.903395,-0.55306 1.162637,-0.92359 1.63952,-2.34335 0.430354,-1.28124 0.70951,-4.3102 0.413618,-4.48792 -0.07135,-0.0429 -0.533632,0.16433 -1.027301,0.46041 -0.493668,0.29608 -1.322079,0.68422 -1.840914,0.86254 -0.835738,0.28724 -1.109325,0.32341 -2.398576,0.3171 -3.101949,-0.0152 -5.014837,-0.94329 -6.504476,-3.15591 -0.257648,-0.38277 -0.468491,-0.76053 -0.468491,-0.83948 0,-0.0789 -0.107173,-0.37899 -0.238161,-0.66677 -0.648732,-1.42528 -0.914426,-3.51152 -0.732157,-5.74892 0.165048,-2.02603 0.391319,-2.94694 1.029021,-4.18804 1.225292,-2.38468 2.826692,-3.64287 5.944156,-4.6702 0.7941,-0.26169 1.024999,-0.27974 3.577462,-0.27974 2.574265,0 2.804012,0.0184 4.062541,0.32472 0.733683,0.17859 1.770541,0.47349 2.304128,0.65532 l 0.97016,0.3306 0.03648,9.48028 c 0.03937,10.22969 0.02779,10.46833 -0.599177,12.35425 -0.750887,2.25866 -1.455542,3.25682 -3.035674,4.30012 -0.627643,0.41441 -1.100421,0.58605 -2.977463,1.08099 -0.840385,0.22159 -2.878991,0.29225 -4.82354,0.1672 z m 4.30627,-12.83717 c 1.262147,-0.63419 2.008425,-1.54092 2.380388,-2.89217 0.174827,-0.63511 0.236862,-6.50528 0.08696,-8.22871 l -0.07813,-0.89828 -0.679804,-0.20709 c -0.502465,-0.15306 -1.091066,-0.20707 -2.256314,-0.20702 -1.489866,6e-5 -1.614113,0.0184 -2.260755,0.33444 -0.376337,0.1839 -0.955966,0.60699 -1.288066,0.9402 -1.325104,1.32952 -1.80694,2.98779 -1.689823,5.81565 0.109474,2.64333 0.562403,3.90852 1.707476,4.76957 0.369887,0.27814 0.851859,0.57227 1.071051,0.65363 0.502237,0.18642 2.587066,0.1308 3.007021,-0.0802 z m 17.505248,4.77036 c -1.420165,-0.35119 -2.007211,-0.60786 -2.899063,-1.26749 -1.970078,-1.45713 -2.77763,-2.83689 -3.460212,-5.91204 -0.320417,-1.44354 -0.322891,-4.27776 -0.0051,-5.84544 0.751256,-3.70604 2.292758,-5.642 5.532551,-6.94829 1.292684,-0.52121 1.466104,-0.56436 2.872264,-0.71474 1.33845,-0.14313 3.15277,2.4e-4 4.03531,0.31887 0.26944,0.0973 0.59903,0.21557 0.73243,0.26286 1.23086,0.43639 2.80016,1.55411 3.42626,2.44033 0.29024,0.41082 1.02608,1.91085 1.32269,2.69635 0.27047,0.71626 0.52153,2.78643 0.5217,4.30173 2.4e-4,2.69575 -0.64297,5.29772 -1.70739,6.9064 -0.92377,1.39609 -2.86095,2.9673 -4.17314,3.38474 -2.29137,0.72894 -4.28422,0.85006 -6.1983,0.37672 z m 4.44341,-3.56953 c 0.62644,-0.26698 1.34441,-0.88832 1.60706,-1.39076 0.30806,-0.58933 0.67811,-1.71845 0.88381,-2.69681 0.1516,-0.72104 0.18422,-1.37394 0.14132,-2.82854 -0.10976,-3.72116 -0.84742,-5.61196 -2.49543,-6.39636 -0.59111,-0.28136 -0.82857,-0.32484 -1.7739,-0.32484 -0.95194,0 -1.18103,0.0426 -1.79247,0.33337 -1.858936,0.88401 -2.632305,2.7971 -2.633394,6.51428 -9.7e-4,3.3959 0.765081,5.67711 2.209484,6.57939 0.92791,0.57964 2.75318,0.67924 3.85352,0.21027 z"
       id="path9043" /><path
       style="fill:#474337;stroke-width:0.119551"
       d="m 58.391101,246.08394 c -0.266794,-0.0217 -0.572843,-0.11644 -0.68011,-0.21061 -0.107266,-0.0942 -0.352838,-0.16135 -0.545714,-0.14928 -0.192876,0.0121 -0.541685,-0.0874 -0.775129,-0.22115 -0.233445,-0.1337 -0.597822,-0.27811 -0.809728,-0.32091 -1.098999,-0.22199 -1.502904,-1.75947 -0.662627,-2.52231 l 0.380926,-0.34582 0.01831,0.84281 c 0.03129,1.44056 0.04056,1.58779 0.102963,1.63456 0.03335,0.025 0.633635,0.19318 1.333968,0.37372 1.434195,0.36974 2.940715,0.63739 4.153494,0.73791 0.450215,0.0373 0.818572,0.10263 0.818572,0.14515 0,0.0795 -2.470068,0.10614 -3.334922,0.0359 z m 9.239531,-0.65909 -0.340791,-0.14655 0.5096,-0.19454 c 0.58854,-0.22468 2.530574,-1.60898 2.534262,-1.80644 0.0014,-0.0731 0.07903,-0.19463 0.172582,-0.27009 0.09355,-0.0755 0.311134,-0.42668 0.48351,-0.78049 0.172375,-0.35382 0.368688,-0.6433 0.43625,-0.6433 0.156073,0 0.160048,0.83239 0.0059,1.22652 -0.06653,0.17007 -0.249575,0.33136 -0.424444,0.37402 -0.179731,0.0438 -0.307464,0.15904 -0.307464,0.27731 0,0.24202 -0.191947,0.43332 -1.152064,1.14819 -0.768866,0.57247 -1.414823,0.98626 -1.515874,0.97104 -0.03335,-0.005 -0.21399,-0.0751 -0.401425,-0.15567 z m -6.025879,-3.00452 c -1.626592,-0.26688 -2.237011,-0.67068 -2.349637,-1.55433 -0.03646,-0.28602 -0.08886,-0.91057 -0.116449,-1.38787 l -0.05017,-0.86782 0.682093,0.0806 c 0.375152,0.0443 0.886738,0.092 1.136857,0.10597 0.250119,0.014 0.454762,0.0633 0.454762,0.10959 0,0.0463 0,0.13367 0,0.19416 0,0.0605 -0.150071,0.10658 -0.333492,0.10244 -0.48186,-0.0109 -1.243016,0.71674 -1.243016,1.18826 0,0.45059 0.740458,1.19215 1.190367,1.19215 0.16735,0 0.564564,0.16233 0.882699,0.36073 0.55654,0.34707 0.592277,0.35376 0.944437,0.17678 0.201305,-0.10117 0.573362,-0.18544 0.826793,-0.18726 1.042272,-0.008 2.385048,-0.69705 2.771426,-1.42319 0.242471,-0.45569 0.221186,-0.77648 -0.115739,-1.74431 -0.160121,-0.45995 -0.241978,-0.83628 -0.181904,-0.83628 0.06007,0 0.109225,-0.0744 0.109225,-0.16525 0,-0.1822 0.600373,-0.42403 1.052697,-0.42403 0.345598,0 0.495125,0.30028 0.300411,0.60329 -0.07722,0.12018 -0.140409,0.41994 -0.140409,0.66615 0,0.43796 -0.345024,1.54743 -0.66657,2.14343 -0.192717,0.35722 -0.850732,0.97484 -1.273748,1.19556 -0.789872,0.41213 -2.773128,0.65298 -3.880637,0.47127 z m 10.025313,-1.16068 c -0.03014,-0.0488 0.04772,-0.45995 0.173029,-0.9137 0.621969,-2.25214 0.614391,-2.11603 0.67008,-12.03479 0.03128,-5.57059 0.0071,-9.4397 -0.05997,-9.61122 -0.08775,-0.22432 -0.3252,-0.35716 -1.085695,-0.60743 -1.733127,-0.57034 -3.424868,-0.92089 -4.782952,-0.9911 -0.718077,-0.0371 -1.291077,-0.0811 -1.273334,-0.0976 0.08873,-0.0828 1.417724,-0.18511 2.132177,-0.16409 1.214003,0.0357 2.817371,0.008 3.296592,-0.0566 0.233445,-0.0316 0.328945,-0.0292 0.212222,0.005 -0.312145,0.0922 -0.262207,0.21763 0.211394,0.53108 0.232989,0.1542 0.423989,0.32014 0.424445,0.36876 4.85e-4,0.0486 0.08486,0.0884 0.187564,0.0884 0.466295,0 1.119377,0.46773 1.314365,0.94133 0.185994,0.45176 0.184416,0.50634 -0.02656,0.91858 -0.210363,0.41105 -0.222517,0.80075 -0.195609,6.27214 0.01578,3.20863 0.07921,5.96645 0.140957,6.1285 0.148797,0.39051 0.19635,3.96932 0.05388,4.0549 -0.06104,0.0367 -0.150382,0.47844 -0.198537,0.98174 -0.04816,0.5033 -0.116572,0.96137 -0.152036,1.01794 -0.03546,0.0566 -0.08614,0.42781 -0.112616,0.82499 -0.02648,0.39717 -0.09684,0.86436 -0.15636,1.0382 -0.05952,0.17384 -0.07871,0.42575 -0.04264,0.55982 0.03739,0.13895 0.0074,0.24374 -0.06983,0.24374 -0.07448,0 -0.135413,0.0777 -0.135413,0.17264 0,0.19263 -0.439336,0.4675 -0.525168,0.32857 z m 11.225981,-2.96686 c -0.936035,-0.0737 -1.173277,-0.13427 -1.424925,-0.36403 -0.61361,-0.56023 -0.377965,-0.59146 1.335505,-0.17703 0.93742,0.22673 1.53013,0.29356 2.61309,0.29464 0.83367,8.3e-4 1.45311,-0.0496 1.53021,-0.1245 0.0712,-0.0692 0.34138,-0.10902 0.60028,-0.0884 l 0.47075,0.0375 -0.33177,0.2187 c -0.2752,0.18142 -0.61634,0.22491 -2.00095,0.2551 -0.91805,0.02 -2.17454,-0.003 -2.79219,-0.052 z m 5.51903,-0.49647 c 0.15008,-0.076 0.27286,-0.17896 0.27286,-0.22885 0,-0.0499 0.20248,-0.15565 0.44995,-0.23502 1.12904,-0.36213 3.02562,-1.90906 3.9431,-3.21617 0.73033,-1.04047 1.3677,-2.88245 1.68714,-4.8758 0.17897,-1.11677 0.30653,-1.63033 0.37528,-1.51093 0.0573,0.0995 0.0902,0.24755 0.0732,0.32906 -0.017,0.0815 0.0364,0.26649 0.11875,0.41108 0.18873,0.33139 0.0779,1.80399 -0.17985,2.38887 -0.1,0.22687 -0.25906,0.58666 -0.35354,0.79953 -0.0945,0.21286 -0.17179,0.55854 -0.17179,0.76816 0,0.21504 -0.13571,0.57523 -0.3114,0.82649 -0.17126,0.24495 -0.38822,0.6948 -0.48213,0.99967 -0.1397,0.45358 -0.28128,0.62716 -0.77905,0.95515 -0.33458,0.22045 -0.87079,0.64473 -1.19159,0.94284 -1.28232,1.19165 -2.03766,1.61162 -3.09267,1.71951 -0.53215,0.0544 -0.58832,0.0429 -0.35825,-0.0736 z M 62.32029,237.4408 c -0.373486,-0.048 -1.028343,-0.17302 -1.455238,-0.27783 -0.426895,-0.10481 -1.010769,-0.23228 -1.297497,-0.28328 -0.28673,-0.051 -0.584144,-0.15377 -0.660921,-0.22838 -0.07678,-0.0746 -0.261155,-0.13567 -0.409728,-0.13567 -0.316465,0 -0.95736,-0.71413 -0.751735,-0.83764 0.07152,-0.043 0.499528,0.0994 0.951125,0.31626 0.451596,0.21691 0.949672,0.41699 1.106834,0.44464 3.069598,0.54003 4.744647,0.3092 6.829367,-0.94112 0.493669,-0.29608 0.955954,-0.50327 1.027301,-0.46041 0.210609,0.1265 0.151667,0.65282 -0.0825,0.73669 -0.116722,0.0418 -0.386487,0.20326 -0.599478,0.35877 -0.21299,0.15551 -0.718821,0.35791 -1.124069,0.44979 -0.405247,0.0919 -1.004392,0.29882 -1.331432,0.45988 -0.803365,0.39564 -1.392913,0.50227 -2.202026,0.3983 z m 17.44698,-0.18436 c -0.182128,-0.0269 -0.514625,-0.21782 -0.738882,-0.4243 -0.224256,-0.20649 -0.528869,-0.45498 -0.676916,-0.55221 -0.148048,-0.0972 -0.359195,-0.36241 -0.469217,-0.58928 -0.110022,-0.22687 -0.270324,-0.48258 -0.356228,-0.56823 -0.0859,-0.0857 -0.156188,-0.23464 -0.156188,-0.33106 0,-0.0964 -0.05411,-0.14282 -0.120254,-0.1031 -0.06614,0.0397 -0.257139,-0.0608 -0.424444,-0.2234 -0.167305,-0.16259 -0.304191,-0.245 -0.304191,-0.18312 0,0.16407 -0.435109,0.13768 -0.573985,-0.0348 -0.172589,-0.21438 -0.27049,-0.67768 -0.143204,-0.67768 0.05995,0 0.245838,-0.11563 0.413091,-0.25696 0.336419,-0.28428 0.416371,-0.90845 0.150938,-1.17835 -0.274016,-0.27863 -0.57446,-0.79132 -0.57446,-0.98028 0,-0.10155 -0.06821,-0.21 -0.151587,-0.24102 -0.179308,-0.0667 -0.168947,-2.28261 0.01224,-2.61796 0.06113,-0.11314 0.114717,-0.73607 0.119074,-1.38428 0.0044,-0.64821 0.08045,-1.50779 0.169091,-1.91019 0.08864,-0.4024 0.153881,-1.26422 0.14497,-1.91516 -0.0089,-0.65094 0.02292,-1.18352 0.07073,-1.18352 0.04781,0 0.0625,-0.12422 0.03263,-0.27604 -0.05469,-0.27805 0.339686,-0.81672 0.422077,-0.57651 0.02489,0.0726 0.174244,0.0877 0.369223,0.0375 0.250099,-0.0644 0.387122,-0.22868 0.580208,-0.6955 0.139029,-0.33613 0.28169,-0.63924 0.317022,-0.67357 0.125283,-0.12176 0.824798,-0.27291 0.824798,-0.17822 0,0.10126 -0.963807,1.55387 -1.098214,1.65518 -0.274345,0.2068 -0.937518,2.12583 -1.221847,3.53568 -0.397059,1.96881 -0.257533,5.70813 0.261655,7.01242 0.220984,0.55515 0.476365,1.55099 0.455745,1.77716 -0.02342,0.25691 0.461694,0.91186 1.329804,1.79535 0.283468,0.28849 0.515397,0.56687 0.515397,0.61861 0,0.0517 0.250494,0.21566 0.556653,0.36426 0.479546,0.23275 1.019855,0.74801 1.019855,0.97257 0,0.0729 -0.191114,0.0693 -0.755586,-0.014 z m -23.337422,-0.74959 c -0.276492,-0.0994 -0.437523,-0.73932 -0.324386,-1.28908 0.05268,-0.25599 0.01046,-0.36029 -0.187471,-0.46325 -0.140505,-0.0731 -0.255463,-0.23707 -0.255463,-0.36443 0,-0.12736 -0.05457,-0.23157 -0.12127,-0.23157 -0.0667,0 -0.121269,-0.10783 -0.121269,-0.23963 0,-0.13179 -0.136429,-0.50128 -0.303175,-0.82107 -0.166746,-0.31979 -0.303175,-0.66091 -0.303175,-0.75804 0,-0.0971 -0.171581,-0.36652 -0.381291,-0.59864 l -0.38129,-0.42204 0.02213,-1.89881 c 0.01217,-1.04435 0.0424,-1.9307 0.06718,-1.96967 0.02478,-0.039 0.0032,-0.29317 -0.0479,-0.56489 -0.09538,-0.50691 0.06847,-1.8021 0.227973,-1.8021 0.04897,0 0.09176,0.96789 0.09509,2.15086 0.0065,2.31877 0.144174,3.22848 0.706108,4.66651 0.488524,1.25017 0.768497,1.72815 1.474971,2.51812 0.364561,0.40765 0.703497,0.82073 0.753191,0.91796 0.05763,0.11276 -0.04784,0.37267 -0.291235,0.7177 -0.313078,0.44379 -0.425962,0.52496 -0.628719,0.45207 z m 5.80717,-3.44949 c -0.767257,-0.27028 -1.689315,-1.08207 -2.034501,-1.79119 -0.522936,-1.07427 -0.667595,-1.77898 -0.744026,-3.62448 -0.117117,-2.82786 0.364719,-4.48613 1.689823,-5.81565 0.3321,-0.33321 0.911729,-0.75566 1.288066,-0.93878 0.639525,-0.31118 0.783324,-0.33321 2.20012,-0.33701 1.148156,-0.003 1.697237,0.0497 2.26352,0.2178 l 0.747646,0.22188 0.04061,0.63274 0.04061,0.63274 -0.697302,-1.2e-4 c -0.519472,-1.2e-4 -0.697302,-0.0426 -0.697302,-0.16652 0,-0.0925 0.09421,-0.15162 0.212222,-0.13316 0.116722,0.0183 0.321365,-0.0243 0.454762,-0.0946 0.133397,-0.0703 0.292564,-0.12972 0.353705,-0.13202 0.06114,-0.002 0.128889,-0.0572 0.150552,-0.12203 0.04617,-0.13813 -0.512263,-0.41249 -0.839581,-0.41249 -0.124484,0 -0.333161,-0.0556 -0.463725,-0.12347 -0.437685,-0.22765 -1.733607,-0.26358 -2.23043,-0.0618 -0.250983,0.10187 -0.603132,0.18525 -0.782554,0.18525 -0.347077,0 -1.341937,0.41797 -1.341937,0.56378 0,0.0478 -0.210944,0.29845 -0.468764,0.55706 -0.434516,0.43586 -0.992928,1.41339 -1.04285,1.82556 -0.01178,0.0972 -0.05225,0.25633 -0.08994,0.35357 -0.216574,0.55871 -0.332509,1.26962 -0.403614,2.47497 -0.06889,1.16782 -0.04477,1.48141 0.174351,2.26656 0.139869,0.50117 0.254306,0.99698 0.254306,1.10182 0,0.39644 0.418897,1.02374 0.885726,1.32638 0.26649,0.17276 0.544576,0.35446 0.617971,0.40377 0.234483,0.15755 1.099776,0.48545 1.208667,0.45802 0.05778,-0.0146 0.233221,0.0551 0.389861,0.15489 0.156639,0.0997 0.368577,0.18135 0.470971,0.18135 0.102394,0 0.186171,0.0494 0.186171,0.10966 0,0.0603 0.122786,0.13264 0.272857,0.16073 0.150072,0.0281 -0.163714,0.0543 -0.697302,0.0582 -0.533587,0.004 -1.149498,-0.0561 -1.368688,-0.1333 z m 2.610596,-0.13014 c -0.194986,-0.13856 -0.196069,-0.17606 -0.01526,-0.5283 0.107042,-0.20853 0.284123,-0.40689 0.393512,-0.44079 0.948453,-0.29399 1.454792,-0.85194 1.555006,-1.71351 0.07794,-0.67011 0.346745,-1.03604 0.761035,-1.03604 0.290278,0 0.299284,0.0965 0.08252,0.88392 -0.28705,1.04278 -0.755218,1.78306 -1.44182,2.27984 -0.913935,0.66127 -1.085144,0.73243 -1.334993,0.55488 z m 22.911013,0.092 c -0.13232,-0.1286 -0.0918,-0.60539 0.0556,-0.65312 0.075,-0.0243 0.13643,-0.18848 0.13643,-0.36484 0,-0.24831 0.0718,-0.3377 0.31833,-0.39627 0.37486,-0.089 0.49585,-0.23551 0.49839,-0.60329 9.7e-4,-0.14812 0.0957,-0.40856 0.21047,-0.57874 0.18459,-0.27379 0.205,-0.62276 0.17727,-3.03064 -0.0321,-2.78937 -0.12703,-3.51672 -0.50376,-3.86116 -0.11857,-0.1084 -0.25192,-0.43266 -0.29635,-0.72058 -0.051,-0.33065 -0.19063,-0.62379 -0.37899,-0.79576 -0.29255,-0.2671 -0.4076,-0.70261 -0.18561,-0.70261 0.14585,0 0.49374,0.3381 0.49374,0.47984 0,0.0602 0.0849,0.10944 0.18862,0.10944 0.35772,0 0.86876,1.37521 1.25082,3.36598 0.19996,1.04193 0.1725,3.82979 -0.0481,4.88393 -0.21586,1.03143 -0.32364,1.35145 -0.76346,2.26678 -0.29162,0.60692 -0.36276,0.67593 -0.6986,0.67767 -0.20565,10e-4 -0.4103,-0.0334 -0.45476,-0.0766 z m -5.98974,-1.18838 c -0.477103,-1.20368 -0.656082,-2.64329 -0.607721,-4.88817 0.03302,-1.53279 0.09974,-2.22516 0.270013,-2.80192 0.124383,-0.42134 0.259683,-0.79258 0.300667,-0.82499 0.04098,-0.0324 0.148165,-0.28135 0.238181,-0.5532 0.19863,-0.59987 0.82552,-1.36944 1.04797,-1.28648 0.0887,0.0331 0.29287,-0.0917 0.45362,-0.2774 0.37281,-0.43059 1.23307,-0.71472 2.1185,-0.69971 0.87526,0.0148 1.29941,0.12814 1.29941,0.34713 0,0.11098 -0.10695,0.16267 -0.30318,0.14653 -0.31704,-0.0261 -2.20988,0.17794 -2.57698,0.27776 -0.14874,0.0404 -0.21222,0.1773 -0.21222,0.45753 0,0.36439 -0.043,0.41234 -0.4854,0.54115 -0.30916,0.09 -0.60482,0.29349 -0.81427,0.56036 -0.18088,0.23047 -0.426303,0.51372 -0.545393,0.62946 -0.119091,0.11574 -0.219479,0.27673 -0.223085,0.35775 -0.0036,0.081 -0.03277,0.46554 -0.0648,0.85446 -0.296186,3.59608 -0.261952,4.79824 0.148827,5.22632 0.314615,0.32786 0.430363,0.76801 0.477447,1.81556 0.04523,1.00645 -0.151736,1.05096 -0.521588,0.11786 z m -14.434132,-3.61513 c -0.268289,-0.12169 -0.272857,-0.15963 -0.272857,-2.2665 0,-1.17852 -0.03075,-2.22063 -0.06834,-2.31582 -0.05513,-0.13964 0.0093,-0.15766 0.333493,-0.0933 l 0.401829,0.0798 0.03301,2.28494 c 0.01815,1.25671 -0.0091,2.31862 -0.06064,2.35979 -0.05151,0.0412 -0.216433,0.0192 -0.366505,-0.0489 z M 55.82419,220.77309 c -0.05524,-0.13991 0.02188,-0.29117 0.242475,-0.47558 0.177915,-0.14872 0.323483,-0.31736 0.323483,-0.37474 0,-0.2676 1.42278,-1.39197 2.304128,-1.82087 0.166746,-0.0811 0.402635,-0.2671 0.524198,-0.41323 0.121564,-0.14614 0.30948,-0.2657 0.417592,-0.2657 0.108113,0 0.649867,-0.1373 1.203897,-0.30511 0.706396,-0.21396 1.012848,-0.3636 1.0258,-0.50089 0.01016,-0.10768 0.0245,-0.25833 0.03186,-0.33478 0.03785,-0.39281 0.708647,-0.49114 3.488272,-0.51131 l 2.265273,-0.0164 0.128374,-0.35789 c 0.125319,-0.34936 0.142117,-0.35589 0.705839,-0.27434 0.317606,0.046 0.59785,0.10281 0.622765,0.12637 0.12838,0.12135 -0.137564,0.40803 -0.434234,0.46809 -0.186277,0.0377 -0.52546,0.15861 -0.75374,0.26868 -0.314039,0.15142 -0.702636,0.19614 -1.596664,0.18373 -0.649885,-0.009 -1.22711,-0.039 -1.282723,-0.0666 -0.09785,-0.0486 -0.858316,-0.0318 -0.919687,0.0203 -0.01667,0.0142 -0.258797,0.0421 -0.53805,0.0621 -0.586168,0.042 -0.765601,0.12538 -0.765601,0.35575 0,0.0974 0.1855,0.19687 0.454762,0.24387 0.851293,0.1486 0.789969,0.25172 -0.199584,0.33561 -0.874361,0.0741 -1.641236,0.27982 -3.426591,0.91911 -0.467905,0.16754 -2.649542,1.61102 -2.649542,1.75307 0,0.11048 -0.845697,1.09642 -0.983553,1.14666 -0.05926,0.0216 -0.144201,-0.0531 -0.188754,-0.16589 z m 36.513767,-1.47378 c -0.33691,-0.36181 -1.96335,-1.3937 -2.33646,-1.48237 -0.17752,-0.0422 -0.3557,-0.12539 -0.39595,-0.18489 -0.0403,-0.0595 -0.20397,-0.12825 -0.36381,-0.15278 -0.15984,-0.0245 -0.53619,-0.10677 -0.83634,-0.18278 -1.24678,-0.31576 -1.39257,-0.49277 -0.58082,-0.70519 0.65278,-0.17083 1.42971,0.0202 1.42971,0.35155 0,0.36497 0.87376,0.68937 1.90451,0.70707 0.48323,0.008 0.51402,0.0301 0.58863,0.4166 0.0523,0.27077 0.2166,0.51005 0.48894,0.71193 0.49098,0.36394 0.75191,0.76592 0.49718,0.76592 -0.0921,0 -0.27007,-0.11028 -0.39559,-0.24506 z m -13.391609,-0.15476 c 0,-0.10257 0.220405,-0.32172 0.489789,-0.48699 0.269386,-0.16527 0.536558,-0.42003 0.593717,-0.56613 0.113567,-0.2903 0.391259,-0.55179 0.638561,-0.6013 0.08669,-0.0174 0.239473,-0.0618 0.339521,-0.0987 0.100048,-0.037 0.318333,-0.0933 0.485079,-0.12521 0.528861,-0.10125 0.769525,-0.16698 1.552602,-0.42402 0.73256,-0.24046 1.08961,-0.25723 2.90407,-0.13643 0.30684,0.0204 0.1405,0.24583 -0.18191,0.2465 -0.83057,0.002 -2.71525,0.37118 -3.497709,0.68565 -1.218431,0.48968 -1.78023,0.74608 -1.989752,0.90811 -0.100047,0.0774 -0.441119,0.28565 -0.757936,0.46286 -0.466552,0.26096 -0.576032,0.28675 -0.576032,0.13569 z M 64.048663,174.64259 c -0.18389,-0.29387 -0.216336,-0.44196 -0.121234,-0.55333 0.179577,-0.21028 0.04588,-0.48515 -0.313351,-0.64422 -0.246956,-0.10935 -0.362944,-0.094 -0.640071,0.0848 -0.292383,0.18863 -0.619112,0.22126 -2.400048,0.23969 -1.529255,0.0158 -2.196439,-0.0228 -2.583832,-0.14964 -0.435672,-0.14265 -0.581419,-0.14553 -0.879207,-0.0174 -0.19633,0.0845 -0.356963,0.18797 -0.356963,0.23003 0,0.11135 0.337769,0.21955 0.685338,0.21955 0.2435,0 0.294216,0.0511 0.262938,0.26518 -0.03311,0.22658 -0.118186,0.26802 -0.584466,0.28469 -0.351976,0.0126 -0.760979,-0.0778 -1.152064,-0.25454 -0.333492,-0.15074 -0.770064,-0.32245 -0.970159,-0.38159 -0.365022,-0.10788 -0.388396,-0.15841 -0.242148,-0.52337 0.129183,-0.32237 -0.349823,-0.68678 -0.902759,-0.68678 -0.262857,0 -0.51165,-0.053 -0.552872,-0.11785 -0.04251,-0.0669 0.05938,-0.11786 0.235383,-0.11786 0.170682,0 0.310332,-0.0468 0.310332,-0.10411 0,-0.0573 0.109143,-0.13185 0.24254,-0.16575 0.158461,-0.0403 0.242539,-0.16076 0.242539,-0.34756 0,-0.24647 -0.07824,-0.30084 -0.566999,-0.39407 -0.805417,-0.15361 -0.836011,-0.40278 -0.04945,-0.40278 0.600185,0 0.616454,-0.009 0.616454,-0.34374 0,-0.23779 -0.102783,-0.41826 -0.333492,-0.58554 l -0.333492,-0.24181 0.390496,-0.004 c 0.29074,-0.003 0.459211,-0.094 0.659473,-0.3573 0.239347,-0.31462 0.338982,-0.35357 0.904493,-0.35357 0.600235,0 1.01665,-0.19309 1.01665,-0.47142 0,-0.12859 -0.312183,-0.43431 -0.513231,-0.50261 -0.186077,-0.0632 0.220416,-0.55809 0.458417,-0.55809 0.08257,0 0.176209,-0.0663 0.208077,-0.14732 0.03187,-0.081 0.02977,-1.99494 -0.0047,-4.25315 l -0.06261,-4.10583 -0.283518,-0.12554 c -0.181688,-0.0804 -0.31043,-0.26495 -0.358444,-0.51369 -0.10512,-0.54456 -0.02167,-0.69543 0.384683,-0.69543 0.29235,0 0.353196,-0.0489 0.353196,-0.28395 0,-0.25991 -0.05377,-0.28659 -0.635194,-0.31517 -0.349356,-0.0172 -0.666363,0.0178 -0.704459,0.0777 -0.130304,0.2049 -0.434326,0.10902 -0.727309,-0.22937 -0.16109,-0.18605 -0.453788,-0.40305 -0.650442,-0.48221 -0.485397,-0.1954 -0.535825,-0.39997 -0.173968,-0.70574 0.204934,-0.17317 0.276502,-0.32159 0.219635,-0.45549 -0.04639,-0.10923 -0.111812,-0.29142 -0.145372,-0.40486 -0.03356,-0.11343 -0.158357,-0.20624 -0.277322,-0.20624 -0.159319,0 -0.25462,0.15523 -0.361761,0.58928 -0.141412,0.57287 -0.359067,0.79913 -0.368471,0.38303 -0.0026,-0.11344 -0.02894,-0.5112 -0.05862,-0.88392 l -0.05396,-0.67767 h 0.407578 c 0.509008,0 0.702298,-0.21485 0.607539,-0.67531 -0.06352,-0.30866 -0.01496,-0.39862 0.368659,-0.68299 0.358779,-0.26595 0.435124,-0.39328 0.406208,-0.67752 -0.06735,-0.66204 0.616402,-0.75167 0.902816,-0.11836 0.184934,0.40893 0.313591,0.50012 0.708826,0.50239 0.39531,0.002 0.511895,-0.10759 0.33454,-0.31527 -0.104132,-0.12194 -0.09868,-0.27875 0.02206,-0.6343 0.203509,-0.59928 0.492499,-0.57335 0.646126,0.058 0.09373,0.38517 0.0769,0.48529 -0.103067,0.61318 -0.200088,0.14219 -0.193046,0.16261 0.100967,0.2928 0.39023,0.17279 0.687046,-0.0171 0.687046,-0.43949 0,-0.22032 0.0648,-0.28021 0.303175,-0.28021 0.240299,0 0.303174,0.0595 0.303174,0.2867 0,0.16976 0.08674,0.31345 0.212664,0.35229 0.344271,0.10619 1.375013,0.11465 2.06826,0.017 0.488701,-0.0689 0.693189,-0.0501 0.84889,0.0778 0.287686,0.23641 1.104014,0.68046 1.250925,0.68046 0.06734,0 0.296146,-0.12653 0.508466,-0.28117 0.212319,-0.15465 0.615724,-0.39328 0.896456,-0.53028 0.54954,-0.2682 1.126723,-0.80278 1.126723,-1.04357 0,-0.17742 0.06747,-0.1848 0.349289,-0.0382 0.149914,0.078 0.35226,0.0411 0.690364,-0.12576 0.383808,-0.18943 0.543966,-0.21179 0.810749,-0.11322 0.490598,0.18128 0.433188,0.48225 -0.09199,0.48225 -0.470451,0 -0.567802,0.1756 -0.166047,0.29953 0.250772,0.0773 1.540475,-0.1303 1.756635,-0.28283 0.05895,-0.0416 0.167266,-0.1817 0.240691,-0.31134 0.248087,-0.43803 1.139833,-0.3259 1.139833,0.14332 0,0.0954 -0.111325,0.20168 -0.247388,0.23626 -0.234011,0.0595 -0.236248,0.0748 -0.04138,0.28409 0.113303,0.12168 0.529413,0.33583 0.924687,0.47589 0.408413,0.14473 0.797476,0.37154 0.901192,0.52538 0.258267,0.38306 0.334811,1.12221 0.167296,1.6155 -0.194761,0.57352 3.63e-4,0.97299 0.368692,0.75492 0.212275,-0.12567 0.278742,-0.1083 0.474822,0.12413 0.30985,0.36728 0.442513,1.26195 0.224906,1.51675 -0.09104,0.1066 -0.167064,0.43097 -0.168948,0.72083 -0.003,0.4598 -0.06027,0.57398 -0.449101,0.89528 -0.865878,0.71549 -1.289445,1.60575 -0.763975,1.60575 0.104863,0 0.18571,0.10262 0.18571,0.23572 0,0.19642 -0.08085,0.23571 -0.48508,0.23571 -0.266793,0 -0.485079,-0.0566 -0.485079,-0.1258 0,-0.0692 -0.100026,-0.0949 -0.222281,-0.0572 -0.158411,0.0489 -0.2622,-0.0166 -0.361209,-0.22777 -0.12783,-0.27265 -0.202424,-0.29633 -0.93359,-0.29633 -0.645359,0 -0.809758,0.0387 -0.875021,0.20625 -0.130603,0.33519 -0.359389,0.50089 -0.691619,0.50089 -0.257832,0 -0.311837,-0.055 -0.311837,-0.31777 0,-0.17477 -0.143769,-0.51939 -0.319488,-0.76581 -0.290836,-0.40786 -0.314019,-0.52233 -0.258509,-1.27631 0.0597,-0.81086 0.05347,-0.83347 -0.29646,-1.07563 -0.294573,-0.20384 -0.409072,-0.22448 -0.651015,-0.11735 -0.373749,0.1655 -0.379008,0.37076 -0.0095,0.37076 0.381196,0 0.719855,0.61569 0.66582,1.21048 -0.04448,0.4896 -0.246813,0.60203 -0.346306,0.19244 -0.03487,-0.14354 -0.14401,-0.29934 -0.24254,-0.34623 -0.325744,-0.155 -1.148228,-0.51057 -1.209941,-0.52307 -0.03335,-0.007 -0.211826,-0.0513 -0.396616,-0.099 -0.188686,-0.0487 -0.440669,-0.0323 -0.574777,0.0375 -0.274811,0.14294 -0.605116,0.7085 -0.605116,1.03611 0,0.1229 -0.08203,0.38325 -0.182282,0.57856 -0.183385,0.35725 -0.138775,1.03431 0.07668,1.16371 0.124386,0.0747 0.128582,3.86493 0.0056,5.0584 -0.131281,1.274 -0.05935,1.48521 0.585293,1.71849 1.178465,0.42648 1.426097,0.56947 1.503193,0.86799 0.04433,0.17166 0.241978,0.37883 0.468993,0.4916 0.491349,0.24407 1.180624,0.91797 1.180624,1.15429 0,0.0979 -0.101162,0.27291 -0.224805,0.38887 -0.317209,0.29751 -0.350773,1.82968 -0.03908,1.78392 0.349003,-0.0513 0.870233,0.13259 0.870233,0.30692 0,0.20861 -0.413682,0.3433 -0.779986,0.25396 -0.383081,-0.0934 -0.730471,0.28794 -0.627048,0.68841 0.08281,0.32065 -0.134666,0.77224 -0.371889,0.77224 -0.07924,0 -0.225772,-0.0794 -0.325628,-0.17645 -0.229258,-0.2228 -0.521475,-0.11971 -0.60781,0.21444 -0.03647,0.14115 -0.144451,0.36047 -0.239954,0.48737 -0.167348,0.22236 -0.182738,0.21618 -0.42473,-0.17054 z m 1.655012,-1.91052 c 0.09518,-0.0925 0.145524,-0.58082 0.145524,-1.41155 0,-1.58331 3.64e-4,-1.58299 -1.842935,-1.65622 -0.807554,-0.0321 -1.368312,-0.10887 -1.485556,-0.20344 -0.164652,-0.1328 -0.188336,-0.75822 -0.188336,-4.97328 0,-4.56271 0.01348,-4.86069 0.251253,-5.55425 0.276964,-0.80788 1.201443,-1.86808 1.876183,-2.15163 0.569636,-0.23939 1.784204,-0.33739 2.266016,-0.18286 0.572204,0.18353 0.706331,0.49028 0.735536,1.68219 0.01374,0.56076 0.06219,1.05568 0.107657,1.09983 0.09917,0.0963 3.483169,-0.12816 3.597135,-0.23858 0.09872,-0.0957 0.182448,-5.18176 0.09112,-5.53537 -0.09919,-0.3841 -1.372144,-0.87352 -2.913334,-1.12011 -2.047308,-0.32756 -4.462259,0.59849 -5.889428,2.2584 -0.328232,0.38176 -0.640063,0.69267 -0.692956,0.69092 -0.0529,-0.002 -0.123457,-0.52076 -0.156806,-1.15334 l -0.06064,-1.15013 h -3.334769 -3.334768 l -0.09196,0.72421 c -0.05058,0.39832 -0.05065,1.08689 -1.21e-4,1.53018 l 0.0918,0.80596 0.970159,0.13066 c 1.251888,0.16862 1.365572,0.22418 1.512828,0.73942 0.168522,0.58964 0.165238,11.24288 -0.0037,11.8339 -0.15543,0.54393 -0.494068,0.77248 -1.274518,0.86021 -1.249216,0.14042 -1.144217,0.002 -1.144217,1.50393 0,0.87693 0.04954,1.37767 0.145524,1.47095 0.209268,0.20338 10.413974,0.20338 10.623242,0 z m 28.239712,1.83069 c -0.0445,-0.0432 -0.0808,-0.2058 -0.0808,-0.36131 0,-0.15551 -0.059,-0.38995 -0.1312,-0.52099 -0.12238,-0.22223 -0.20995,-0.23329 -1.30365,-0.16464 -1.29183,0.0811 -2.68162,0.28354 -2.87023,0.41809 -0.3873,0.2763 -0.7694,0.19138 -1.29041,-0.28677 -0.29075,-0.26684 -0.65202,-0.63068 -0.80281,-0.80855 -0.25988,-0.30653 -0.29196,-0.31445 -0.61519,-0.15201 -0.40562,0.20385 -0.67213,0.49127 -0.58401,0.62984 0.0349,0.0548 0.34086,0.17311 0.67999,0.26286 0.33913,0.0897 0.59746,0.21958 0.57406,0.28851 -0.0713,0.21005 -1.6018,0.21975 -2.01366,0.0128 -0.41635,-0.20925 -1.08876,-0.23342 -1.72387,-0.062 -0.24201,0.0653 -0.89687,0.14375 -1.45524,0.17425 -0.558367,0.0305 -1.069788,0.0622 -1.136486,0.0705 -0.0667,0.008 -0.49933,-0.0209 -0.961403,-0.0649 -0.815648,-0.0776 -1.42617,-0.28555 -1.588725,-0.54116 -0.04371,-0.0687 -0.384242,-0.25596 -0.756737,-0.41606 -0.526689,-0.22637 -0.699047,-0.25773 -0.775247,-0.14104 -0.0944,0.14455 -0.145997,0.40774 -0.11606,0.592 0.02107,0.12966 -0.449479,0.10773 -0.721231,-0.0336 -0.270123,-0.1405 -0.31143,-0.52914 -0.07096,-0.66767 0.299939,-0.17279 0.341561,-0.68826 0.07453,-0.92311 -0.235319,-0.20696 -0.254306,-0.20562 -0.599477,0.0424 -0.608167,0.43698 -1.0939,0.27858 -1.0939,-0.35673 0,-0.2398 0.05995,-0.32999 0.219361,-0.32999 0.120649,0 0.30877,-0.0663 0.418048,-0.14732 0.181489,-0.13457 0.17125,-0.20088 -0.118282,-0.76607 -0.174332,-0.34031 -0.387175,-0.61874 -0.472983,-0.61874 -0.08581,0 -0.212689,-0.19888 -0.281959,-0.44196 -0.306428,-1.07531 -0.855889,-3.7736 -0.855709,-4.20222 5.2e-5,-0.12352 -0.140763,-0.40406 -0.312921,-0.62342 -0.259928,-0.33119 -0.318021,-0.54296 -0.342527,-1.24861 -0.03903,-1.12392 0.0061,-1.29044 0.301095,-1.11139 0.173417,0.10526 0.260711,0.10521 0.369161,-2.3e-4 0.158091,-0.15364 0.183645,-1.06294 0.04649,-1.65444 -0.05793,-0.24983 -0.0366,-0.44555 0.06101,-0.55985 0.104036,-0.12182 0.126836,-0.40819 0.07433,-0.93353 -0.07218,-0.72211 -0.06288,-0.75959 0.197347,-0.7955 0.248751,-0.0343 0.280687,-0.12174 0.358278,-0.98054 l 0.08518,-0.94285 -0.388359,-0.32847 c -0.377559,-0.31933 -0.452301,-0.66165 -0.211342,-0.96794 0.05099,-0.0648 0.128392,-0.26303 0.171997,-0.44047 0.0436,-0.17744 0.201201,-0.39637 0.350214,-0.48653 0.351414,-0.2126 1.059186,-0.33935 1.059186,-0.18968 0,0.0632 0.08186,0.1149 0.181905,0.1149 0.100047,0 0.181905,0.053 0.181905,0.11786 0,0.0648 -0.04093,0.11158 -0.09095,0.1039 -0.260346,-0.04 -0.394127,0.0352 -0.394127,0.22132 0,0.11405 -0.102361,0.26949 -0.227471,0.34542 -0.125109,0.0759 -0.271181,0.3406 -0.324605,0.58816 -0.09978,0.46239 -0.07837,1.54979 0.03407,1.72952 0.144299,0.23066 1.361069,-1.34982 1.364692,-1.77262 0.005,-0.58414 0.208905,-0.83553 0.749706,-0.92432 0.362061,-0.0594 0.649855,-0.21223 0.947381,-0.50295 0.513581,-0.50181 1.82637,-1.11393 2.980484,-1.38973 0.463329,-0.11072 0.989777,-0.27303 1.169886,-0.3607 0.180109,-0.0877 0.616675,-0.16067 0.970155,-0.16221 0.67823,-0.003 1.23184,-0.11077 1.89116,-0.36825 0.28934,-0.11299 0.42318,-0.1198 0.48508,-0.0247 0.047,0.0722 0.30379,0.16127 0.57058,0.19781 1.06105,0.14533 1.87283,0.29776 2.00341,0.3762 0.0756,0.0454 0.47432,0.1283 0.88606,0.18423 0.41174,0.0559 1.1316,0.17787 1.59967,0.27098 0.46808,0.0931 0.99532,0.14249 1.17165,0.10973 0.24901,-0.0463 0.35333,0.002 0.46716,0.21736 0.0806,0.1523 0.31736,0.45242 0.52613,0.66693 0.46004,0.47269 0.43559,0.0802 0.49147,7.88806 l 0.0398,5.56739 0.28794,0.23318 c 0.15837,0.12825 0.47894,0.29434 0.71239,0.3691 0.55131,0.17655 0.64642,0.2705 0.55555,0.54874 -0.0685,0.20987 -0.13227,0.21971 -0.75155,0.11602 -0.55189,-0.0924 -0.7102,-0.0807 -0.85852,0.0634 -0.14604,0.14192 -0.1538,0.22769 -0.0394,0.43541 0.12145,0.22054 0.21405,0.24893 0.62835,0.19261 0.61529,-0.0836 1.08382,0.14265 1.41091,0.68142 0.30976,0.51022 0.35101,0.93985 0.15031,1.56534 -0.20659,0.64386 -0.0911,1.10084 0.27809,1.10084 0.15273,0 0.37981,0.0726 0.50463,0.16127 0.2187,0.15542 0.21693,0.16648 -0.0487,0.30466 -0.15163,0.0789 -0.40621,0.11156 -0.56573,0.0727 -0.46023,-0.11221 -0.7788,0.28456 -0.7788,0.97002 0,0.64557 -0.26061,1.02743 -0.52551,0.76999 z m -10.37334,-1.29 c 1.32879,-0.28239 2.46702,-0.85656 3.34762,-1.68867 0.41566,-0.39278 0.81131,-0.71414 0.8792,-0.71414 0.0699,0 0.12345,0.30349 0.12345,0.69946 0,0.38471 0.0536,0.8364 0.11905,1.00377 l 0.11905,0.3043 3.12492,-0.0314 3.12492,-0.0315 0.0341,-1.37275 c 0.0403,-1.62247 0.002,-1.68903 -1.03876,-1.80642 -0.38988,-0.044 -0.76537,-0.11566 -0.83441,-0.1593 -0.43435,-0.27455 -0.44699,-0.50874 -0.43183,-7.99966 0.0136,-6.74016 -0.002,-7.34956 -0.19108,-7.56084 -0.21252,-0.23717 -0.97936,-0.48877 -3.17703,-1.0424 -1.18533,-0.2986 -1.44934,-0.32108 -3.82,-0.3253 -2.684157,-0.005 -2.736486,0.003 -4.668891,0.66492 -1.063807,0.36457 -2.299944,1.1502 -3.178624,2.0202 -1.042095,1.0318 -2.006059,2.84849 -2.48133,4.67634 -0.296156,1.13898 -0.322231,1.43449 -0.327578,3.71245 -0.0059,2.52049 0.100039,3.36765 0.611433,4.88859 0.342981,1.02007 1.021925,2.09498 1.777075,2.81348 1.322362,1.25818 1.699851,1.44817 3.780929,1.90292 1.241677,0.27132 1.994996,0.28246 3.107826,0.046 z m -1.360426,-3.39813 c -1.052784,-0.28223 -1.763339,-0.91726 -2.314995,-2.06893 -0.585018,-1.22133 -0.645911,-1.64614 -0.633515,-4.4196 0.01105,-2.47296 0.02627,-2.63463 0.329193,-3.49705 0.768601,-2.18822 1.365345,-2.97798 2.725673,-3.6073 0.64511,-0.29845 0.80166,-0.32039 2.26942,-0.31803 1.23318,0.002 1.69888,0.0492 2.13839,0.217 0.54268,0.20715 0.56463,0.23464 0.64245,0.80482 0.0443,0.32469 0.0718,2.66665 0.0611,5.20436 -0.0172,4.06834 -0.0452,4.6946 -0.23677,5.2953 -0.41726,1.30842 -1.45198,2.16549 -2.92231,2.42058 -0.97212,0.16865 -1.33373,0.16318 -2.058616,-0.0311 z m 3.160926,-1.05693 c 1.21883,-0.79472 1.24232,-0.88739 1.30743,-5.15579 0.0504,-3.30294 0.0459,-3.38317 -0.20196,-3.62407 -0.13941,-0.13548 -0.38386,-0.24634 -0.54322,-0.24634 -0.15935,0 -0.41156,-0.0959 -0.56047,-0.21305 -0.22054,-0.17356 -0.25496,-0.2828 -0.1857,-0.58928 0.0826,-0.36534 0.10363,-0.37623 0.72766,-0.37623 0.59971,0 0.65271,-0.0236 0.79333,-0.35357 0.11672,-0.27384 0.11861,-0.42885 0.008,-0.68749 -0.13766,-0.32298 -0.24482,-0.37355 -0.82696,-0.39029 -0.15008,-0.004 -0.40577,-0.16135 -0.5682,-0.34895 -0.26861,-0.31024 -0.59704,-0.46881 -0.52342,-0.25271 0.0166,0.0486 -0.0939,0.29246 -0.24544,0.54188 -0.21317,0.35081 -0.32295,0.43265 -0.48488,0.36148 -0.11512,-0.0506 -0.64753,-0.10738 -1.18314,-0.12617 -1.400245,-0.0491 -1.564567,0.0726 -2.285607,1.69385 -0.425943,0.9577 -0.553875,1.37362 -0.493919,1.60578 0.0445,0.17232 0.129569,0.31331 0.189038,0.31331 0.168529,0 0.127059,0.352 -0.06326,0.53696 -0.242466,0.23564 -0.344326,1.59346 -0.266735,3.55559 0.07222,1.82624 0.113635,1.9574 0.996469,3.15558 0.720984,0.97852 1.356744,1.25383 2.746164,1.18919 0.74293,-0.0346 0.89655,-0.089 1.66444,-0.58968 z"
       id="path9039" /></g></svg>
